Coordinates
version=1
nRows=29
nColumns=22
inDegrees=yes

Units are S.I. units (second, meters, Newtons, ...)
If the header above contains a line with 'inDegrees', this indicates whether rotational values are in degrees (yes) or radians (no).

endheader
time	pelvis_tilt	pelvis_list	pelvis_rotation	pelvis_tx	pelvis_ty	pelvis_tz	hip_flexion_r	hip_adduction_r	hip_rotation_r	knee_angle_r	ankle_angle_r	subtalar_angle_r	hip_flexion_l	hip_adduction_l	hip_rotation_l	knee_angle_l	ankle_angle_l	subtalar_angle_l	lumbar_extension	lumbar_bending	lumbar_rotation
      1.06000000	     -4.27473869	      4.94914902	    -28.49597053	     -0.88619872	      0.88848086	     -0.43099436	      5.97332616	     -4.61712855	     -4.78689530	    -18.54272900	     25.23135063	     -9.40933422	      4.25486532	      3.06851385	     -5.70828303	    -15.32238968	     21.38228039	     -7.05520226	     -2.99599578	     -5.46329063	      4.78183930
      1.07000000	     -4.53205019	      5.39512388	    -28.44254616	     -0.88413666	      0.88740945	     -0.43129941	      7.38933783	     -4.89911191	     -3.85341026	    -20.51113432	     25.43998390	    -10.48147154	      4.48959451	      3.44631845	     -5.68372673	    -15.10777402	     21.39815767	     -7.01266814	     -2.98803292	     -5.87470897	      4.70875370
      1.08000000	     -4.81009114	      5.88482215	    -28.40639736	     -0.88216301	      0.88625016	     -0.43147642	      9.04376930	     -5.14635447	     -2.72995521	    -22.83467569	     25.56033197	    -11.54807797	      4.76636263	      3.83490924	     -5.74598956	    -14.89555218	     21.36563674	     -6.92293196	     -2.95518782	     -6.33113330	      4.62880879
      1.09000000	     -5.08655993	      6.39357096	    -28.35765592	     -0.88024791	      0.88503250	     -0.43152316	     10.86776073	     -5.32309438	     -1.43220912	    -25.46203025	     25.70643375	    -12.81962379	      5.04080849	      4.22765489	     -5.81103870	    -14.66780779	     21.34513930	     -6.76389345	     -2.93406336	     -6.81872571	      4.50610692
      1.10000000	     -5.36282899	      6.91400476	    -28.28969390	     -0.87836954	      0.88376605	     -0.43142831	     12.83238252	     -5.40823664	     -0.00322949	    -28.34796244	     25.79596832	    -14.12151534	      5.31222573	      4.61378900	     -5.90310692	    -14.43200346	     21.32779891	     -6.53422543	     -2.92666482	     -7.32667066	      4.31976718
      1.11000000	     -5.64519865	      7.42703586	    -28.20460339	     -0.87646666	      0.88245944	     -0.43115477	     14.91068184	     -5.38633955	      1.43904472	    -31.45286751	     25.74081932	    -15.22169702	      5.57267330	      4.96873331	     -6.06040036	    -14.19290718	     21.29530181	     -6.25888666	     -2.92037683	     -7.83190377	      4.11812613
      1.12000000	     -5.90950582	      7.89821295	    -28.06202304	     -0.87443958	      0.88117715	     -0.43072963	     16.98650016	     -5.24289603	      2.84377541	    -34.65901783	     25.66830794	    -16.35748433	      5.75506870	      5.28643393	     -6.16055237	    -13.91023432	     21.29727079	     -5.88130590	     -2.95830403	     -8.30642749	      3.83381758
      1.13000000	     -6.15195228	      8.32131419	    -27.86978026	     -0.87222126	      0.87994640	     -0.43014264	     19.02460799	     -5.00154869	      4.12593833	    -37.90755416	     25.49022231	    -17.23308998	      5.84717386	      5.56081871	     -6.26733780	    -13.58182526	     21.28794873	     -5.45427435	     -3.03508612	     -8.73906637	      3.45983766
      1.14000000	     -6.36454346	      8.66612103	    -27.61206557	     -0.86976158	      0.87880564	     -0.42942443	     20.96637060	     -4.66623950	      5.23134994	    -41.13054504	     25.28468007	    -18.02582966	      5.81834585	      5.77767050	     -6.28235431	    -13.19997723	     21.30229410	     -4.89626144	     -3.17557012	     -9.10024817	      3.03089607
      1.15000000	     -6.56908442	      8.95678765	    -27.30357314	     -0.86704797	      0.87771316	     -0.42859322	     22.84704259	     -4.28022640	      6.13240536	    -44.30534744	     24.95235464	    -18.34883840	      5.71800584	      5.94378668	     -6.30788920	    -12.79378753	     21.31365308	     -4.41130816	     -3.33633221	     -9.39465654	      2.52466976
      1.16000000	     -6.77028180	      9.17938779	    -26.93800337	     -0.86403809	      0.87666721	     -0.42764917	     24.63887018	     -3.85121429	      6.82289226	    -47.37812051	     24.60610756	    -18.51909637	      5.52576991	      6.05032195	     -6.26780691	    -12.33284216	     21.35394663	     -3.82278928	     -3.51282086	     -9.60506395	      1.94848834
      1.17000000	     -6.93832466	      9.35925758	    -26.52775775	     -0.86072752	      0.87568332	     -0.42662116	     26.33437302	     -3.44113028	      7.31890528	    -50.33970714	     24.27703316	    -18.50824876	      5.21940373	      6.14447809	     -6.11671306	    -11.80203025	     21.36167010	     -3.31094882	     -3.72433878	     -9.77134268	      1.32669650
      1.18000000	     -7.14579855	      9.48180318	    -26.07383525	     -0.85722135	      0.87464293	     -0.42549015	     28.00799418	     -3.00889767	      7.62437380	    -53.18537574	     23.88050264	    -18.24458698	      4.95968670	      6.14865482	     -6.02065096	    -11.37704064	     21.46740142	     -2.59749113	     -3.90551274	     -9.84612403	      0.65439395
      1.19000000	     -7.32218689	      9.57927277	    -25.59215370	     -0.85342182	      0.87362357	     -0.42428133	     29.60020788	     -2.64308690	      7.77071259	    -55.89034932	     23.53429984	    -17.85869334	      4.60297335	      6.15604600	     -5.81892453	    -10.88528265	     21.55499990	     -2.00500333	     -4.10713454	     -9.88958494	     -0.04574046
      1.20000000	     -7.49774302	      9.66550666	    -25.08808485	     -0.84939672	      0.87255295	     -0.42296962	     31.16054944	     -2.34388131	      7.78314595	    -58.46287026	     23.22335143	    -17.41008634	      4.23406811	      6.15356258	     -5.55942424	    -10.41538953	     21.65287872	     -1.48519131	     -4.29162186	     -9.91229807	     -0.77690039
      1.21000000	     -7.66935328	      9.73953470	    -24.57048901	     -0.84514740	      0.87142923	     -0.42154765	     32.68537980	     -2.11806266	      7.68300041	    -60.89223231	     22.94975224	    -16.92630054	      3.84939620	      6.14171989	     -5.24681359	     -9.96504874	     21.77313874	     -1.03339759	     -4.46275815	     -9.91248787	     -1.52178608
      1.22000000	     -7.83661885	      9.80877934	    -24.04000576	     -0.84072016	      0.87024195	     -0.42001454	     34.18305831	     -1.97155032	      7.49806285	    -63.17666553	     22.70766838	    -16.48927810	      3.47875894	      6.12408985	     -4.89960757	     -9.57801166	     21.90964487	     -0.67343345	     -4.62731615	     -9.90131901	     -2.29135749
      1.23000000	     -7.98423997	      9.85165996	    -23.50594751	     -0.83603650	      0.86903128	     -0.41831701	     35.61310109	     -1.90651798	      7.21183321	    -65.29196479	     22.54987534	    -16.23704028	      3.04779578	      6.09065752	     -4.45952312	     -9.17132602	     22.05082284	     -0.42926924	     -4.79604479	     -9.86603667	     -3.05707916
      1.24000000	     -8.15218906	      9.89384025	    -22.98917341	     -0.83121319	      0.86770441	     -0.41643558	     37.05388430	     -1.89936625	      6.88660890	    -67.26318854	     22.36563233	    -15.85397716	      2.68033697	      6.03481297	     -4.06672888	     -8.87344768	     22.24155987	     -0.18995132	     -4.92033100	     -9.82019918	     -3.80802898
      1.25000000	     -8.30502988	      9.92169198	    -22.53541766	     -0.82625056	      0.86631549	     -0.41430880	     38.46527123	     -1.92265327	      6.56876932	    -69.08143297	     22.11660987	    -15.17808352	      2.31769286	      5.95881138	     -3.78281414	     -8.64797419	     22.50140212	      0.02465229	     -5.04583708	     -9.76335729	     -4.48382742
      1.26000000	     -8.41167248	      9.88958669	    -22.09147803	     -0.82103384	      0.86498189	     -0.41196002	     39.75470594	     -1.99248202	      6.17818087	    -70.69895028	     21.98197842	    -14.97485159	      1.84754988	      5.84022111	     -3.38824491	     -8.38969030	     22.73049062	      0.14148943	     -5.22556649	     -9.65755944	     -5.15686312
      1.27000000	     -8.52734114	      9.84256680	    -21.71250772	     -0.81568443	      0.86356412	     -0.40932720	     41.03518442	     -2.06751727	      5.80577803	    -72.15402176	     21.80494836	    -14.63737956	      1.40415522	      5.68740867	     -3.08082937	     -8.20303216	     22.99646396	      0.23745110	     -5.37493883	     -9.53310449	     -5.76191532
      1.28000000	     -8.60669581	      9.75324767	    -21.42545194	     -0.81017530	      0.86214588	     -0.40635940	     42.24119692	     -2.11339705	      5.47308642	    -73.43315636	     21.59929671	    -14.20612264	      0.90212283	      5.49353754	     -2.84758267	     -8.03841088	     23.29114554	      0.31413712	     -5.55520495	     -9.37647142	     -6.29045560
      1.29000000	     -8.64137065	      9.60575875	    -21.22809231	     -0.80443313	      0.86075047	     -0.40305214	     43.34980036	     -2.14929574	      5.12041152	    -74.52993126	     21.38307752	    -13.84454149	      0.31046169	      5.24790422	     -2.68584468	     -7.87365756	     23.60405309	      0.38134908	     -5.77140040	     -9.17518401	     -6.68799478
      1.30000000	     -8.63303615	      9.42151523	    -21.15567063	     -0.79854166	      0.85935052	     -0.39935653	     44.38166984	     -2.11591280	      4.85181911	    -75.45741711	     21.14245453	    -13.20361720	     -0.35431753	      4.97029051	     -2.61803327	     -7.71730871	     23.90882659	      0.44958947	     -6.01733149	     -8.94725241	     -7.01712569
      1.31000000	     -8.61255584	      9.16356648	    -21.12403940	     -0.79245570	      0.85796584	     -0.39539060	     45.32853399	     -2.06018938	      4.52151979	    -76.19684248	     20.91657533	    -13.00295567	     -1.06096068	      4.61372143	     -2.56572091	     -7.59331392	     24.22133893	      0.50547213	     -6.29218282	     -8.64080113	     -7.26718533
      1.32000000	     -8.54159276	      8.84217894	    -21.17941841	     -0.78618888	      0.85662125	     -0.39109791	     46.16063359	     -1.94238521	      4.22116570	    -76.76519650	     20.68246892	    -12.54295946	     -1.85590959	      4.20576881	     -2.56659590	     -7.48546310	     24.52701623	      0.58496000	     -6.62834981	     -8.27638888	     -7.49663063
      1.33000000	     -8.46418713	      8.48446479	    -21.27823914	     -0.77974067	      0.85524028	     -0.38658027	     46.93988400	     -1.82866396	      3.88603854	    -77.18284170	     20.42555332	    -12.14320128	     -2.66835139	      3.76173288	     -2.58495406	     -7.42154435	     24.82289485	      0.65596484	     -6.97415639	     -7.86697357	     -7.64568390
      1.34000000	     -8.37525686	      8.07455669	    -21.40069081	     -0.77311194	      0.85386063	     -0.38187954	     47.63904204	     -1.71272305	      3.50807139	    -77.44760727	     20.15281414	    -11.77804943	     -3.49839562	      3.26870467	     -2.59474922	     -7.42116465	     25.11136717	      0.72194464	     -7.35117339	     -7.38612244	     -7.76813216
